<?xml version="1.0" encoding="utf-8"?>
<!-- Generator: Adobe Illustrator 24.1.2, SVG Export Plug-In . SVG Version: 6.00 Build 0)  -->
<svg version="1.1" xmlns="http://www.w3.org/2000/svg" xmlns:xlink="http://www.w3.org/1999/xlink" x="0px" y="0px"
	 viewBox="0 0 2087.3 2074.4" style="enable-background:new 0 0 2087.3 2074.4;" xml:space="preserve">
<style type="text/css">
	.st0{display:none;}
	.st1{display:inline;}
</style>
<g id="Слой_1">
	<g class="st0">
		<path class="st1" d="M1455.7,1460C1455.7,1460,1455.7,1460,1455.7,1460c-27.3-28.7-22.8-77.7,3.9-112.8
			c170.6-222.7,170.6-534.1,0-756.7c-26.7-35.2-31.2-84.1-3.9-112.8c0,0,0,0,0,0c27.2-28.7,83.4-19.1,117.7,25.8
			c209.8,273.9,209.8,656.9,0,930.8C1539.1,1479,1482.9,1488.6,1455.7,1460z"/>
	</g>
</g>
<g id="Слой_2">
	<g>
		<path d="M1201.4,323.6c-5.2-5.6-1.1-1.3-5.7-6.2l-12.7-12.6c-3.4-3.1-0.3-0.3-4.1-3.8c-4.2-3.5-0.8-0.7-4.9-4.1
			c-3.4-2.8-0.8-0.6-4.3-3.5c-4.5-3.4-0.8-0.7-5.8-4.4c-8.6-5.9-1.4-0.9-10.5-7c-10.1-6.1-1.8-1.2-11.5-6.9c-4.4-2.4-1.4-0.8-5.5-3
			c-6.5-3.3-1.1-0.6-8-4c-8.8-4-1.6-0.7-10.6-4.7c-10.1-3.7-1.9-0.8-11.8-4.4c-8.4-2.8-1.8-0.6-9.4-3.1c-2.4-0.7-1.1-0.3-3.5-1
			c-7.9-2.1-1.1-0.3-9.8-2.5c-10.7-2.1-1.9-0.4-12.8-2.5c-10.8-1.5-2.1-0.3-12.2-1.6c-4.1-0.3-1.4-0.2-4.8-0.3
			c-2.4-0.3-0.7-0.1-3.8-0.4c-10.7-0.7-1.4-0.1-12.6-0.8c-9.1,0-1.9-0.1-10,0l-28.1,1.7l-17.1,1.8c-11.6,1.5-1.1,0.2-13.2,1.7
			c-4.9,0.8-1.6,0.2-5.5,0.9c-1.5,0.3-0.6,0.1-1.8,0.3c-2.1,0.6-0.4,0.1-2.6,0.8c-2.8,1.1-0.5,0.2-3.3,1.3c-2.6,1.4-0.5,0.3-3.1,1.7
			c-3.3,2.5-0.6,0.4-3.6,2.7L625.8,526.3c-2.5,1.9-0.2,0.2-2.9,2.2c-1.2,0.7-0.4,0.3-1.6,0.9c-2,0.9-0.3,0.2-2.5,1.1
			c-2.1,0.7-0.4,0.2-2.6,0.8c-2.3,0.4-0.4,0.1-2.8,0.5c-2.7,0.2-0.5,0.1-2.9,0.2h-134c-12.1,0.7-1.1,0.1-13.6,0.8
			c-3.2,0.4-1.4,0.1-3.8,0.4c-2.5,0.1-0.6,0.1-3.9,0.2c-10.7,1.4-1.3,0.2-12.2,1.6c-4.4,0.7-1.5,0.2-5.5,0.9
			c-6.3,1.2-1.1,0.2-8.1,1.7c-12.1,3-1.9,0.5-14.2,3.7c-9.5,3-2.1,0.6-11.2,3.6c-7.4,2.8-1.7,0.6-9.2,3.5
			c-11.1,4.9-1.9,0.8-13.1,5.8c-8.6,4.3-2,0.9-10.3,5.3c-9,5.2-1.8,1-10.8,6.3c-8.8,5.8-1.8,1.1-10.5,7c-8.6,6.3-1.7,1.2-10.2,7.6
			c-7.7,6.4-1.6,1.3-9.2,7.7c-7.3,6.6-1.4,1.3-8.2,7.6c-2.5,2.4-1,0.9-3.3,3.3c-5.7,6.1-0.8,0.9-6.9,7.5c-6.4,7.5-1.2,1.4-7.7,9.2
			c-6.4,8.5-1.3,1.6-7.6,10.2c-6.2,9.3-1.2,1.7-7,10.5c-1.8,2.9-0.8,1.2-2.4,3.8c-3.1,5.5-0.5,0.9-3.9,7c-4.8,9.2-0.8,1.5-5.7,11.1
			c-4.7,10.5-0.9,1.9-5.5,12.3c-2.9,7.5-0.8,1.8-3.5,9.2c-3,9.1-0.6,1.7-3.6,11.2c-3.1,11.9-0.6,2.1-3.6,14.2
			c-2.1,10.7-0.5,2.2-2.5,12.8c-1.4,10-0.3,2.1-1.6,12.2c-1,12.3-0.2,2.1-1.1,13.5l0,1c-0.4,7.1,0,0.7-0.4,7.8v434l1.5,22.2
			c1.2,9.2,0.1,0.9,1.5,11.2c2.3,11.9,0.4,2.1,2.7,13.7c1.5,6.3,0.4,1.8,1.9,8c3,10.4,0.5,1.7,3.6,12.2c2.7,7.6,0.6,1.8,3.3,9.3
			c4,10,0.7,1.8,4.7,11.6c3.1,6.6,0.7,1.6,3.8,8.1c4.5,8.5,0.8,1.5,5.4,10.3c5.5,9.3,1,1.8,6.4,10.8c3.9,6,0.9,1.5,5,7.5
			c6.4,8.7,1,1.5,7.6,10.2c5.4,6.7,1.2,1.5,6.3,7.8c4.6,5,1,1.1,5,5.5l12,12c5,4.6,0.5,0.5,6.2,5.7c7.3,6,1.2,1,8.5,7
			c5.1,3.9,1.3,1,6.5,4.9c9,6.1,1.4,1,10.5,7.1c6,3.8,1.4,0.9,6.8,4.3c2.5,1.4,0.8,0.5,3.1,1.8c3.4,1.8,0.7,0.4,4.7,2.5
			c10.1,5.1,1.4,0.7,12,6c8.8,4,1.9,0.9,10.6,4.7c10,3.7,1.9,0.8,11.8,4.4c8.2,2.5,1.8,0.6,9.5,2.9c5.9,1.6,1.4,0.4,7.1,1.9
			c5.8,1.4,1.2,0.3,7.2,1.7c7.9,1.5,1.4,0.3,9.1,1.7c4,0.7,1.2,0.2,5.6,0.9c0.9,0.1,1.6,0.2,2.2,0.3l757.3-1075.9
			C1204.8,327.7,1205.9,329,1201.4,323.6z"/>
		<path d="M644.4,1414.1l32.1,23.8l48.3,35.4l12.3,9.3l48.3,35.4l13.1,9.8l48.3,35.4l12.3,9.3l114.7,84.5c1.9,1.3,0.2,0.1,2.3,1.4
			c1,0.6,0.3,0.2,1.6,0.8c4.4,1.6,0.6,0.2,5.1,1.8c2.9,0.6,0.7,0.2,3.6,0.7c4,0.3,0.7,0.1,4.8,0.3c4.3,0.5,0.8,0.1,4.7,0.6l25.1,1.7
			l21,0c8.7-0.5,0.9-0.1,10.7-0.7c11-1.2,2-0.2,13.2-1.5c11.9-2.1,2.3-0.3,13.8-2.5c7.5-1.7,1.9-0.4,9-2c7.3-2,1.5-0.4,8.8-2.4
			c8.1-2.6,1.5-0.5,9.4-3.1c5.3-1.8,1.3-0.5,6.8-2.4c9.1-3.8,1.5-0.6,10.7-4.5c7.2-3.3,1.6-0.7,8.9-4.2c9.9-5.4,1.7-0.9,11.8-6.5
			c8.2-5,1.8-1,9.9-6.1c9.7-6.7,1.8-1.2,11.2-7.7c5.1-3.9,1.5-1.1,6.5-5c8.3-7,1.3-1.1,9.8-8.3c6.9-6.2,1.5-1.3,8.2-7.5
			c6.2-6.7,1.3-1.3,7.5-8.2c7.6-8.9,1.4-1.6,8.9-10.5c5.6-7.3,1.3-1.6,6.6-8.7c4.8-6.9,1-1.4,5.6-8.2c3.4-5.5,0.8-1.3,4.2-6.9
			c4.5-7.7,0.8-1.3,5.4-9.3c4.4-8.6,0.9-1.6,5.3-10.3c4-8.9,0.8-1.8,4.7-10.7c3.3-8.6,0.7-1.7,3.8-10.1c2.1-6,0.5-1.5,2.6-7.7
			c3.1-11.1,0.5-1.8,3.6-13.2c2.2-10.3,0.5-2.1,2.5-11.7c0.9-4.6,0.3-1.4,1-5.5c0.7-4.7,0.2-0.9,0.8-5.6c0.6-4.8,0.1-0.9,0.7-5.7
			c0.2-4.1,0.1-0.9,0.3-4.8c0.3-2.4,0.1-0.7,0.4-3.8c0.7-11.6,0.1-1.4,0.8-12.6V540.2l-613.8,872
			C642.7,1412.9,641.5,1412,644.4,1414.1z"/>
		<path d="M637.7,1409.5c-1.1-0.6-0.3-0.2-1.6-0.8c-3.6-1.3-0.5-0.2-4.3-1.4c-3.2-0.6-0.7-0.2-3.7-0.6c-1.8-0.1-0.5-0.1-2-0.1h-157
			c-7.8-0.4-0.8-0.1-9.7-0.6c-10.8-1.3-3.3-0.3-11-1.3l-65.1,92.5c-25.8,36.7-17,87.4,19.7,113.2l0,0c36.7,25.8,87.4,17,113.2-19.7
			l125.6-178.5c-0.3-0.2-0.8-0.6-1.8-1.3C638,1409.7,639.4,1410.5,637.7,1409.5z"/>
		<path d="M1346.1,270.4L1346.1,270.4c-36.7-25.8-87.4-17-113.2,19.7l-27.2,38.6c0.4,0.5,1.3,1.5,3.3,4.1c3.4,4.5,1,1.3,4.4,5.8
			c6,8.8,0.9,1.4,7.1,10.4c4.8,7.8,1.1,1.6,5.6,9.2c3.1,5.8,0.8,1.4,3.8,7.1c3.6,7.2,0.7,1.3,4.4,8.8c4,8.9,0.8,1.6,4.7,10.6
			c3.1,8.3,0.7,1.7,3.8,10.1c3.2,9.5,0.6,1.8,3.7,11.2c2,7,0.5,1.7,2.4,8.8c2.4,10.7,0.4,1.8,2.7,12.6c1.4,8.8,0.4,1.9,1.6,10.2
			c0.7,5.6,0.2,1.4,0.8,6.6c0.3,4.1,0.1,0.9,0.4,4.8c0.4,2.4,0.1,0.7,0.5,3.8c0.7,11.6,0.1,1.4,0.7,12.6v74.7l110.2-156.6
			C1391.6,347,1382.8,296.3,1346.1,270.4z"/>
	</g>
</g>
</svg>
